# xmcd
#
# Track frame offsets:
#  150
#  20412
#  61205
#  85715
#  105501
#  127452
#  152452
#  182938
#  203381
#  236413
#  255149
#  271182
#  288427
#
# Disc length: 4095 seconds
#
# Revision: 0
# Processed by: cddbd v1.5.1PL2 Copyright (c) Steve Scherf et al.
# Submitted via: Collectorz.com_Music_Collector 6.11
#
DISCID=a20ffd0d
DTITLE=Hooker, John Lee - Live At The Café Au GoGo (and Soledad Prison)
DYEAR=1996
DGENRE=Blues
TTITLE0=Bang, Bang, Bang, Bang
TTITLE1=Boogie Everywhere I Go
TTITLE2=Heartaches And Misery
TTITLE3=I Don't Want No Trouble
TTITLE4=I'll Never Get Out Of These Blues Alive
TTITLE5=I'm Bad Like Jesse James
TTITLE6=Lucille
TTITLE7=One Bourbon, One Scotch And One Beer
TTITLE8=Serve Me Right To Suffer
TTITLE9=Seven Days
TTITLE10=She's Long, She's Tall She Weeps Like A Willow Tree
TTITLE11=What's The Matter Baby
TTITLE12=When My First Wife Left Me
EXTD=
EXTT0=
EXTT1=
EXTT2=
EXTT3=
EXTT4=
EXTT5=
EXTT6=
EXTT7=
EXTT8=
EXTT9=
EXTT10=
EXTT11=
EXTT12=
PLAYORDER=
